<?xml version="1.0" encoding="UTF-8" standalone="no"?>
<!-- Copyright 2017 mathsisfun.com -->
<svg xmlns:xlink="http://www.w3.org/1999/xlink" xmlns="http://www.w3.org/2000/svg" width="455.9" height="264"
     version="1.1" style="font-size:16.4px; stroke-width:0.81;">
    <defs/>
    <text x="223.5" y="-401.2" transform="rotate(90)" style="font-family:Arial; fill:#121513; stroke:#636466;">0</text>
    <text x="214.2" y="-419.3" transform="rotate(90)" style="font-family:Arial; fill:#121513; stroke:#636466;">180
    </text>
    <text x="253.8" y="-358.6" transform="rotate(80)" style="font-family:Arial; fill:#121513; stroke:#636466;">10</text>
    <text x="248" y="-376.5" transform="rotate(80)" style="font-family:Arial; fill:#121513; stroke:#636466;">170</text>
    <text x="283.7" y="-309.8" transform="rotate(70)" style="font-family:Arial; fill:#121513; stroke:#636466;">20</text>
    <text x="275.5" y="-328.5" transform="rotate(70)" style="font-family:Arial; fill:#121513; stroke:#636466;">160
    </text>
    <text x="303.7" y="-256.6" transform="rotate(60)" style="font-family:Arial; fill:#121513; stroke:#636466;">30</text>
    <text x="295.4" y="-274.5" transform="rotate(60)" style="font-family:Arial; fill:#121513; stroke:#636466;">150
    </text>
    <text x="311.7" y="-201.4" transform="rotate(50)" style="font-family:Arial; fill:#121513; stroke:#636466;">40</text>
    <text x="306.1" y="-220.6" transform="rotate(50)" style="font-family:Arial; fill:#121513; stroke:#636466;">140
    </text>
    <text x="311" y="-146.6" transform="rotate(40)" style="font-family:Arial; fill:#121513; stroke:#636466;">50</text>
    <text x="306.6" y="-164.3" transform="rotate(40)" style="font-family:Arial; fill:#121513; stroke:#636466;">130
    </text>
    <text x="301.9" y="-90.9" transform="rotate(29.9999)" style="font-family:Arial; fill:#121513; stroke:#636466;">60
    </text>
    <text x="297" y="-109.7" transform="rotate(29.9999)" style="font-family:Arial; fill:#121513; stroke:#636466;">120
    </text>
    <text x="283.5" y="-38.3" transform="rotate(20)" style="font-family:Arial; fill:#121513; stroke:#636466;">70</text>
    <text x="278" y="-57" transform="rotate(20)" style="font-family:Arial; fill:#121513; stroke:#636466;">110</text>
    <text x="256.5" y="10.1" transform="rotate(9.99998)" style="font-family:Arial; fill:#121513; stroke:#636466;">80
    </text>
    <text x="250.4" y="-7.5" transform="rotate(9.99998)" style="font-family:Arial; fill:#121513; stroke:#636466;">100
    </text>
    <text x="213.1" y="45.1"
          style="font-family:Arial; font-size:27.9px; fill:#121513; stroke:#636466; stroke-width:1.37;">90
    </text>
    <text x="171.1" y="88.9" transform="rotate(-9.99998)" style="font-family:Arial; fill:#121513; stroke:#636466;">100
    </text>
    <text x="176.7" y="71.4" transform="rotate(-9.99998)" style="font-family:Arial; fill:#121513; stroke:#636466;">80
    </text>
    <text x="122.6" y="116.7" transform="rotate(-20)" style="font-family:Arial; fill:#121513; stroke:#636466;">110
    </text>
    <text x="128.6" y="99.5" transform="rotate(-20)" style="font-family:Arial; fill:#121513; stroke:#636466;">70</text>
    <text x="69.2" y="136.4" transform="rotate(-29.9999)" style="font-family:Arial; fill:#121513; stroke:#636466;">120
    </text>
    <text x="74.7" y="118" transform="rotate(-29.9999)" style="font-family:Arial; fill:#121513; stroke:#636466;">60
    </text>
    <text x="13.4" y="145.7" transform="rotate(-40)" style="font-family:Arial; fill:#121513; stroke:#636466;">130</text>
    <text x="18.7" y="127.9" transform="rotate(-40)" style="font-family:Arial; fill:#121513; stroke:#636466;">50</text>
    <text x="-42.4" y="146.6" transform="rotate(-50)" style="font-family:Arial; fill:#121513; stroke:#636466;">140
    </text>
    <text x="-37.7" y="128.4" transform="rotate(-50)" style="font-family:Arial; fill:#121513; stroke:#636466;">40</text>
    <text x="-97.8" y="136.4" transform="rotate(-60)" style="font-family:Arial; fill:#121513; stroke:#636466;">150
    </text>
    <text x="-94.5" y="118.5" transform="rotate(-60)" style="font-family:Arial; fill:#121513; stroke:#636466;">30</text>
    <text x="-150.9" y="117" transform="rotate(-70)" style="font-family:Arial; fill:#121513; stroke:#636466;">160</text>
    <text x="-147.6" y="99.5" transform="rotate(-70)" style="font-family:Arial; fill:#121513; stroke:#636466;">20</text>
    <text x="-200.6" y="88.6" transform="rotate(-80)" style="font-family:Arial; fill:#121513; stroke:#636466;">170
    </text>
    <text x="-197" y="70.8" transform="rotate(-80)" style="font-family:Arial; fill:#121513; stroke:#636466;">10</text>
    <text x="-245.5" y="52.4" transform="rotate(-90)" style="font-family:Arial; fill:#121513; stroke:#636466;">180
    </text>
    <text x="-234.2" y="34.2" transform="rotate(-90)" style="font-family:Arial; fill:#121513; stroke:#636466;">0</text>
    <path style="color:black; overflow:visible; fill:none; stroke:#666666; stroke-width:1.39; stroke-linejoin:round;"
          d="M 228,0.7 C 102.5,0.7 0.7,102.5 0.7,228 c 0,12 1,23.8 2.7,35.3 H 452.5 c 1.8,-11.5 2.8,-23.2 2.8,-35.3 C 455.3,102.5 353.5,0.7 228,0.7 Z"/>
    <polyline points="585.00 300.00, 610.00 300.00, " transform="matrix(0.733277,0,0,0.733277,7.73864,8.86143)"
              style="fill:none; stroke:black; stroke-width:4.09;"/>
    <polyline points="583.92 275.16, 608.82 272.98, " transform="matrix(0.733277,0,0,0.733277,7.73864,8.86143)"
              style="fill:none; stroke:black; stroke-width:1.88;"/>
    <polyline points="329.54 294.79, 526.51 260.06, " transform="matrix(0.733277,0,0,0.733277,7.73864,8.86143)"
              style="fill:none; stroke:black; stroke-width:1.23;"/>
    <polyline points="580.67 250.51, 605.29 246.17, " transform="matrix(0.733277,0,0,0.733277,7.73864,8.86143)"
              style="fill:none; stroke:black; stroke-width:1.88;"/>
    <polyline points="575.29 226.24, 599.44 219.77, " transform="matrix(0.733277,0,0,0.733277,7.73864,8.86143)"
              style="fill:none; stroke:black; stroke-width:1.88;"/>
    <polyline points="328.19 289.74, 516.13 221.34, " transform="matrix(0.733277,0,0,0.733277,7.73864,8.86143)"
              style="fill:none; stroke:black; stroke-width:1.23;"/>
    <polyline points="567.81 202.52, 591.30 193.97, " transform="matrix(0.733277,0,0,0.733277,7.73864,8.86143)"
              style="fill:none; stroke:black; stroke-width:1.88;"/>
    <polyline points="558.30 179.55, 580.96 168.99, " transform="matrix(0.733277,0,0,0.733277,7.73864,8.86143)"
              style="fill:none; stroke:black; stroke-width:1.88;"/>
    <polyline points="325.98 285.00, 499.19 185.00, " transform="matrix(0.733277,0,0,0.733277,7.73864,8.86143)"
              style="fill:none; stroke:black; stroke-width:1.23;"/>
    <polyline points="546.82 157.50, 568.47 145.00, " transform="matrix(0.733277,0,0,0.733277,7.73864,8.86143)"
              style="fill:none; stroke:black; stroke-width:1.88;"/>
    <polyline points="533.46 136.53, 553.94 122.19, " transform="matrix(0.733277,0,0,0.733277,7.73864,8.86143)"
              style="fill:none; stroke:black; stroke-width:1.88;"/>
    <polyline points="322.98 280.72, 476.19 152.16, " transform="matrix(0.733277,0,0,0.733277,7.73864,8.86143)"
              style="fill:none; stroke:black; stroke-width:1.23;"/>
    <polyline points="518.32 116.81, 537.47 100.74, " transform="matrix(0.733277,0,0,0.733277,7.73864,8.86143)"
              style="fill:none; stroke:black; stroke-width:1.88;"/>
    <polyline points="501.53 98.475, 519.20 80.797, " transform="matrix(0.733277,0,0,0.733277,7.73864,8.86143)"
              style="fill:none; stroke:black; stroke-width:4.09;"/>
    <polyline points="319.28 277.02, 447.84 123.81, " transform="matrix(0.733277,0,0,0.733277,7.73864,8.86143)"
              style="fill:none; stroke:black; stroke-width:1.23;"/>
    <polyline points="483.19 81.677, 499.26 62.526, " transform="matrix(0.733277,0,0,0.733277,7.73864,8.86143)"
              style="fill:none; stroke:black; stroke-width:1.88;"/>
    <polyline points="463.47 66.542, 477.81 46.063, " transform="matrix(0.733277,0,0,0.733277,7.73864,8.86143)"
              style="fill:none; stroke:black; stroke-width:1.88;"/>
    <polyline points="315.00 274.02, 415.00 100.81, " transform="matrix(0.733277,0,0,0.733277,7.73864,8.86143)"
              style="fill:none; stroke:black; stroke-width:1.23;"/>
    <polyline points="442.50 53.183, 455.00 31.532, " transform="matrix(0.733277,0,0,0.733277,7.73864,8.86143)"
              style="fill:none; stroke:black; stroke-width:1.88;"/>
    <polyline points="420.45 41.702, 431.01 19.045, " transform="matrix(0.733277,0,0,0.733277,7.73864,8.86143)"
              style="fill:none; stroke:black; stroke-width:1.88;"/>
    <polyline points="310.26 271.81, 378.66 83.871, " transform="matrix(0.733277,0,0,0.733277,7.73864,8.86143)"
              style="fill:none; stroke:black; stroke-width:1.23;"/>
    <polyline points="397.48 32.188, 406.03 8.6953, " transform="matrix(0.733277,0,0,0.733277,7.73864,8.86143)"
              style="fill:none; stroke:black; stroke-width:1.88;"/>
    <polyline points="373.76 24.711, 380.23 0.56299, " transform="matrix(0.733277,0,0,0.733277,7.73864,8.86143)"
              style="fill:none; stroke:black; stroke-width:1.88;"/>
    <polyline points="305.21 270.46, 339.94 73.494, " transform="matrix(0.733277,0,0,0.733277,7.73864,8.86143)"
              style="fill:none; stroke:black; stroke-width:1.23;"/>
    <polyline points="349.49 19.330, 353.83 -5.2904, " transform="matrix(0.733277,0,0,0.733277,7.73864,8.86143)"
              style="fill:none; stroke:black; stroke-width:1.88;"/>
    <polyline points="324.84 16.085, 327.02 -8.8204, " transform="matrix(0.733277,0,0,0.733277,7.73864,8.86143)"
              style="fill:none; stroke:black; stroke-width:1.88;"/>
    <polyline points="300.00 270.00, 300.00 70.000, " transform="matrix(0.174963,0,0,0.946074,175.863,-5.82493)"
              style="fill:none; stroke:black; stroke-width:2.95;"/>
    <polyline points="300.00 15.000, 300.00 -10.000, " transform="matrix(0.733277,0,0,0.733277,7.73864,8.86143)"
              style="fill:none; stroke:black; stroke-width:4.18;"/>
    <polyline points="275.16 16.085, 272.98 -8.8204, " transform="matrix(0.733277,0,0,0.733277,7.73864,8.86143)"
              style="fill:none; stroke:black; stroke-width:1.88;"/>
    <polyline points="294.79 270.46, 260.06 73.494, " transform="matrix(0.733277,0,0,0.733277,7.73864,8.86143)"
              style="fill:none; stroke:black; stroke-width:1.23;"/>
    <polyline points="250.51 19.330, 246.17 -5.2904, " transform="matrix(0.733277,0,0,0.733277,7.73864,8.86143)"
              style="fill:none; stroke:black; stroke-width:1.88;"/>
    <polyline points="226.24 24.711, 219.77 0.56299, " transform="matrix(0.733277,0,0,0.733277,7.73864,8.86143)"
              style="fill:none; stroke:black; stroke-width:1.88;"/>
    <polyline points="289.74 271.81, 221.34 83.871, " transform="matrix(0.733277,0,0,0.733277,7.73864,8.86143)"
              style="fill:none; stroke:black; stroke-width:1.23;"/>
    <polyline points="202.52 32.188, 193.97 8.6953, " transform="matrix(0.733277,0,0,0.733277,7.73864,8.86143)"
              style="fill:none; stroke:black; stroke-width:1.88;"/>
    <polyline points="179.55 41.702, 168.99 19.045, " transform="matrix(0.733277,0,0,0.733277,7.73864,8.86143)"
              style="fill:none; stroke:black; stroke-width:1.88;"/>
    <polyline points="285.00 274.02, 185.00 100.81, " transform="matrix(0.733277,0,0,0.733277,7.73864,8.86143)"
              style="fill:none; stroke:black; stroke-width:1.23;"/>
    <polyline points="157.50 53.183, 145.00 31.532, " transform="matrix(0.733277,0,0,0.733277,7.73864,8.86143)"
              style="fill:none; stroke:black; stroke-width:1.88;"/>
    <polyline points="136.53 66.542, 122.19 46.063, " transform="matrix(0.733277,0,0,0.733277,7.73864,8.86143)"
              style="fill:none; stroke:black; stroke-width:1.88;"/>
    <polyline points="280.72 277.02, 152.16 123.81, " transform="matrix(0.733277,0,0,0.733277,7.73864,8.86143)"
              style="fill:none; stroke:black; stroke-width:1.23;"/>
    <polyline points="116.81 81.677, 100.74 62.526, " transform="matrix(0.733277,0,0,0.733277,7.73864,8.86143)"
              style="fill:none; stroke:black; stroke-width:1.88;"/>
    <polyline points="98.475 98.475, 80.797 80.797, " transform="matrix(0.733277,0,0,0.733277,7.73864,8.86143)"
              style="fill:none; stroke:black; stroke-width:4.09;"/>
    <polyline points="277.02 280.72, 123.81 152.16, " transform="matrix(0.733277,0,0,0.733277,7.73864,8.86143)"
              style="fill:none; stroke:black; stroke-width:1.23;"/>
    <polyline points="81.677 116.81, 62.526 100.74, " transform="matrix(0.733277,0,0,0.733277,7.73864,8.86143)"
              style="fill:none; stroke:black; stroke-width:1.88;"/>
    <polyline points="66.542 136.53, 46.063 122.19, " transform="matrix(0.733277,0,0,0.733277,7.73864,8.86143)"
              style="fill:none; stroke:black; stroke-width:1.88;"/>
    <polyline points="274.02 285.00, 100.81 185.00, " transform="matrix(0.733277,0,0,0.733277,7.73864,8.86143)"
              style="fill:none; stroke:black; stroke-width:1.23;"/>
    <polyline points="53.183 157.50, 31.532 145.00, " transform="matrix(0.733277,0,0,0.733277,7.73864,8.86143)"
              style="fill:none; stroke:black; stroke-width:1.88;"/>
    <polyline points="41.702 179.55, 19.045 168.99, " transform="matrix(0.733277,0,0,0.733277,7.73864,8.86143)"
              style="fill:none; stroke:black; stroke-width:1.88;"/>
    <polyline points="271.81 289.74, 83.871 221.34, " transform="matrix(0.733277,0,0,0.733277,7.73864,8.86143)"
              style="fill:none; stroke:black; stroke-width:1.23;"/>
    <polyline points="32.188 202.52, 8.6953 193.97, " transform="matrix(0.733277,0,0,0.733277,7.73864,8.86143)"
              style="fill:none; stroke:black; stroke-width:1.88;"/>
    <polyline points="24.711 226.24, 0.56299 219.77, " transform="matrix(0.733277,0,0,0.733277,7.73864,8.86143)"
              style="fill:none; stroke:black; stroke-width:1.88;"/>
    <polyline points="270.46 294.79, 73.494 260.06, " transform="matrix(0.733277,0,0,0.733277,7.73864,8.86143)"
              style="fill:none; stroke:black; stroke-width:1.23;"/>
    <polyline points="19.330 250.51, -5.2904 246.17, " transform="matrix(0.733277,0,0,0.733277,7.73864,8.86143)"
              style="fill:none; stroke:black; stroke-width:1.88;"/>
    <polyline points="16.085 275.16, -8.8204 272.98, " transform="matrix(0.733277,0,0,0.733277,7.73864,8.86143)"
              style="fill:none; stroke:black; stroke-width:1.88;"/>
    <polyline points="270.00 300.00, 70.000 300.00, " transform="matrix(1.67227,0,0,0.733277,-57.1075,8.86143)"
              style="fill:none; stroke:black; stroke-width:1.08;"/>
    <polyline points="15.000 300.00, -10.000 300.00, " transform="matrix(0.733277,0,0,0.733277,7.73864,8.86143)"
              style="fill:none; stroke:black; stroke-width:4.09;"/>
    <circle cx="228" cy="228" r="21.2582"
            style="color:black; overflow:visible; fill:none; stroke:black; stroke-width:1.38; stroke-linejoin:round;"/>
    <text x="62.2" y="251.6"
          style="font-family:Arial; font-size:12.8px; color:black; overflow:visible; fill:#2d2d2d; stroke-width:3.67;">©
        MathsIsFun.com
    </text>
    <path style="fill:none; stroke:black; stroke-width:1; stroke-dasharray:8, 8;" d="M 228.4,228.8 388.5,68.1"/>
    <path style="fill:none; stroke:black; stroke-width:1; stroke-dasharray:8, 8;" d="M 228.4,228.8 67,68.1"/>
    <path id="aa1" style="fill:none; stroke:black; stroke-width:0.4;" d="M 0.4,228.8 H 10.7"/>
    <use xlink:href="#aa1" x="0" y="0"/>
    <use transform="rotate(1,228.283,228.632)" xlink:href="#aa1" x="0" y="0"/>
    <use transform="rotate(2,228.283,228.632)" xlink:href="#aa1" x="0" y="0"/>
    <use transform="rotate(3,228.283,228.632)" xlink:href="#aa1" x="0" y="0"/>
    <use transform="rotate(4,228.283,228.632)" xlink:href="#aa1" x="0" y="0"/>
    <use transform="rotate(6,228.283,228.632)" xlink:href="#aa1" x="0" y="0"/>
    <use transform="rotate(7,228.283,228.632)" xlink:href="#aa1" x="0" y="0"/>
    <use transform="rotate(8,228.283,228.632)" xlink:href="#aa1" x="0" y="0"/>
    <use transform="rotate(9,228.283,228.632)" xlink:href="#aa1" x="0" y="0"/>
    <use transform="rotate(11,228.283,228.632)" xlink:href="#aa1" x="0" y="0"/>
    <use transform="rotate(12,228.283,228.632)" xlink:href="#aa1" x="0" y="0"/>
    <use transform="rotate(13,228.283,228.632)" xlink:href="#aa1" x="0" y="0"/>
    <use transform="rotate(14,228.283,228.632)" xlink:href="#aa1" x="0" y="0"/>
    <use transform="rotate(16,228.283,228.632)" xlink:href="#aa1" x="0" y="0"/>
    <use transform="rotate(17,228.283,228.632)" xlink:href="#aa1" x="0" y="0"/>
    <use transform="rotate(18,228.283,228.632)" xlink:href="#aa1" x="0" y="0"/>
    <use transform="rotate(19,228.283,228.632)" xlink:href="#aa1" x="0" y="0"/>
    <use transform="rotate(21,228.283,228.632)" xlink:href="#aa1" x="0" y="0"/>
    <use transform="rotate(22,228.283,228.632)" xlink:href="#aa1" x="0" y="0"/>
    <use transform="rotate(23,228.283,228.632)" xlink:href="#aa1" x="0" y="0"/>
    <use transform="rotate(24,228.283,228.632)" xlink:href="#aa1" x="0" y="0"/>
    <use transform="rotate(26,228.283,228.632)" xlink:href="#aa1" x="0" y="0"/>
    <use transform="rotate(27,228.283,228.632)" xlink:href="#aa1" x="0" y="0"/>
    <use transform="rotate(28,228.283,228.632)" xlink:href="#aa1" x="0" y="0"/>
    <use transform="rotate(29,228.283,228.632)" xlink:href="#aa1" x="0" y="0"/>
    <use transform="rotate(31,228.283,228.632)" xlink:href="#aa1" x="0" y="0"/>
    <use transform="rotate(32,228.283,228.632)" xlink:href="#aa1" x="0" y="0"/>
    <use transform="rotate(33,228.283,228.632)" xlink:href="#aa1" x="0" y="0"/>
    <use transform="rotate(34,228.283,228.632)" xlink:href="#aa1" x="0" y="0"/>
    <use transform="rotate(36,228.283,228.632)" xlink:href="#aa1" x="0" y="0"/>
    <use transform="rotate(37,228.283,228.632)" xlink:href="#aa1" x="0" y="0"/>
    <use transform="rotate(38,228.283,228.632)" xlink:href="#aa1" x="0" y="0"/>
    <use transform="rotate(39,228.283,228.632)" xlink:href="#aa1" x="0" y="0"/>
    <use transform="rotate(41,228.283,228.632)" xlink:href="#aa1" x="0" y="0"/>
    <use transform="rotate(42,228.283,228.632)" xlink:href="#aa1" x="0" y="0"/>
    <use transform="rotate(43,228.283,228.632)" xlink:href="#aa1" x="0" y="0"/>
    <use transform="rotate(44,228.283,228.632)" xlink:href="#aa1" x="0" y="0"/>
    <use transform="rotate(46,228.283,228.632)" xlink:href="#aa1" x="0" y="0"/>
    <use transform="rotate(47,228.283,228.632)" xlink:href="#aa1" x="0" y="0"/>
    <use transform="rotate(48,228.283,228.632)" xlink:href="#aa1" x="0" y="0"/>
    <use transform="rotate(49,228.283,228.632)" xlink:href="#aa1" x="0" y="0"/>
    <use transform="rotate(51,228.283,228.632)" xlink:href="#aa1" x="0" y="0"/>
    <use transform="rotate(52,228.283,228.632)" xlink:href="#aa1" x="0" y="0"/>
    <use transform="rotate(53,228.283,228.632)" xlink:href="#aa1" x="0" y="0"/>
    <use transform="rotate(54,228.283,228.632)" xlink:href="#aa1" x="0" y="0"/>
    <use transform="rotate(56,228.283,228.632)" xlink:href="#aa1" x="0" y="0"/>
    <use transform="rotate(57,228.283,228.632)" xlink:href="#aa1" x="0" y="0"/>
    <use transform="rotate(58,228.283,228.632)" xlink:href="#aa1" x="0" y="0"/>
    <use transform="rotate(59,228.283,228.632)" xlink:href="#aa1" x="0" y="0"/>
    <use transform="rotate(61,228.283,228.632)" xlink:href="#aa1" x="0" y="0"/>
    <use transform="rotate(62,228.283,228.632)" xlink:href="#aa1" x="0" y="0"/>
    <use transform="rotate(63,228.283,228.632)" xlink:href="#aa1" x="0" y="0"/>
    <use transform="rotate(64,228.283,228.632)" xlink:href="#aa1" x="0" y="0"/>
    <use transform="rotate(66,228.283,228.632)" xlink:href="#aa1" x="0" y="0"/>
    <use transform="rotate(67,228.283,228.632)" xlink:href="#aa1" x="0" y="0"/>
    <use transform="rotate(68,228.283,228.632)" xlink:href="#aa1" x="0" y="0"/>
    <use transform="rotate(69,228.283,228.632)" xlink:href="#aa1" x="0" y="0"/>
    <use transform="rotate(71,228.283,228.632)" xlink:href="#aa1" x="0" y="0"/>
    <use transform="rotate(72,228.283,228.632)" xlink:href="#aa1" x="0" y="0"/>
    <use transform="rotate(73,228.283,228.632)" xlink:href="#aa1" x="0" y="0"/>
    <use transform="rotate(74,228.283,228.632)" xlink:href="#aa1" x="0" y="0"/>
    <use transform="rotate(76,228.283,228.632)" xlink:href="#aa1" x="0" y="0"/>
    <use transform="rotate(77,228.283,228.632)" xlink:href="#aa1" x="0" y="0"/>
    <use transform="rotate(78,228.283,228.632)" xlink:href="#aa1" x="0" y="0"/>
    <use transform="rotate(79,228.283,228.632)" xlink:href="#aa1" x="0" y="0"/>
    <use transform="rotate(81,228.283,228.632)" xlink:href="#aa1" x="0" y="0"/>
    <use transform="rotate(82,228.283,228.632)" xlink:href="#aa1" x="0" y="0"/>
    <use transform="rotate(83,228.283,228.632)" xlink:href="#aa1" x="0" y="0"/>
    <use transform="rotate(84,228.283,228.632)" xlink:href="#aa1" x="0" y="0"/>
    <use transform="rotate(86,228.283,228.632)" xlink:href="#aa1" x="0" y="0"/>
    <use transform="rotate(87,228.283,228.632)" xlink:href="#aa1" x="0" y="0"/>
    <use transform="rotate(88,228.283,228.632)" xlink:href="#aa1" x="0" y="0"/>
    <use transform="rotate(89,228.283,228.632)" xlink:href="#aa1" x="0" y="0"/>
    <use transform="rotate(91,228.283,228.632)" xlink:href="#aa1" x="0" y="0"/>
    <use transform="rotate(92,228.283,228.632)" xlink:href="#aa1" x="0" y="0"/>
    <use transform="rotate(93,228.283,228.632)" xlink:href="#aa1" x="0" y="0"/>
    <use transform="rotate(94,228.283,228.632)" xlink:href="#aa1" x="0" y="0"/>
    <use transform="rotate(96,228.283,228.632)" xlink:href="#aa1" x="0" y="0"/>
    <use transform="rotate(97,228.283,228.632)" xlink:href="#aa1" x="0" y="0"/>
    <use transform="rotate(98,228.283,228.632)" xlink:href="#aa1" x="0" y="0"/>
    <use transform="rotate(99,228.283,228.632)" xlink:href="#aa1" x="0" y="0"/>
    <use transform="rotate(101,228.283,228.632)" xlink:href="#aa1" x="0" y="0"/>
    <use transform="rotate(102,228.283,228.632)" xlink:href="#aa1" x="0" y="0"/>
    <use transform="rotate(103,228.283,228.632)" xlink:href="#aa1" x="0" y="0"/>
    <use transform="rotate(104,228.283,228.632)" xlink:href="#aa1" x="0" y="0"/>
    <use transform="rotate(106,228.283,228.632)" xlink:href="#aa1" x="0" y="0"/>
    <use transform="rotate(107,228.283,228.632)" xlink:href="#aa1" x="0" y="0"/>
    <use transform="rotate(108,228.283,228.632)" xlink:href="#aa1" x="0" y="0"/>
    <use transform="rotate(109,228.283,228.632)" xlink:href="#aa1" x="0" y="0"/>
    <use transform="rotate(111,228.283,228.632)" xlink:href="#aa1" x="0" y="0"/>
    <use transform="rotate(112,228.283,228.632)" xlink:href="#aa1" x="0" y="0"/>
    <use transform="rotate(113,228.283,228.632)" xlink:href="#aa1" x="0" y="0"/>
    <use transform="rotate(114,228.283,228.632)" xlink:href="#aa1" x="0" y="0"/>
    <use transform="rotate(116,228.283,228.632)" xlink:href="#aa1" x="0" y="0"/>
    <use transform="rotate(117,228.283,228.632)" xlink:href="#aa1" x="0" y="0"/>
    <use transform="rotate(118,228.283,228.632)" xlink:href="#aa1" x="0" y="0"/>
    <use transform="rotate(119,228.283,228.632)" xlink:href="#aa1" x="0" y="0"/>
    <use transform="rotate(121,228.283,228.632)" xlink:href="#aa1" x="0" y="0"/>
    <use transform="rotate(122,228.283,228.632)" xlink:href="#aa1" x="0" y="0"/>
    <use transform="rotate(123,228.283,228.632)" xlink:href="#aa1" x="0" y="0"/>
    <use transform="rotate(124,228.283,228.632)" xlink:href="#aa1" x="0" y="0"/>
    <use transform="rotate(126,228.283,228.632)" xlink:href="#aa1" x="0" y="0"/>
    <use transform="rotate(127,228.283,228.632)" xlink:href="#aa1" x="0" y="0"/>
    <use transform="rotate(128,228.283,228.632)" xlink:href="#aa1" x="0" y="0"/>
    <use transform="rotate(129,228.283,228.632)" xlink:href="#aa1" x="0" y="0"/>
    <use transform="rotate(131,228.283,228.632)" xlink:href="#aa1" x="0" y="0"/>
    <use transform="rotate(132,228.283,228.632)" xlink:href="#aa1" x="0" y="0"/>
    <use transform="rotate(133,228.283,228.632)" xlink:href="#aa1" x="0" y="0"/>
    <use transform="rotate(134,228.283,228.632)" xlink:href="#aa1" x="0" y="0"/>
    <use transform="rotate(136,228.283,228.632)" xlink:href="#aa1" x="0" y="0"/>
    <use transform="rotate(137,228.283,228.632)" xlink:href="#aa1" x="0" y="0"/>
    <use transform="rotate(138,228.283,228.632)" xlink:href="#aa1" x="0" y="0"/>
    <use transform="rotate(139,228.283,228.632)" xlink:href="#aa1" x="0" y="0"/>
    <use transform="rotate(141,228.283,228.632)" xlink:href="#aa1" x="0" y="0"/>
    <use transform="rotate(142,228.283,228.632)" xlink:href="#aa1" x="0" y="0"/>
    <use transform="rotate(143,228.283,228.632)" xlink:href="#aa1" x="0" y="0"/>
    <use transform="rotate(144,228.283,228.632)" xlink:href="#aa1" x="0" y="0"/>
    <use transform="rotate(146,228.283,228.632)" xlink:href="#aa1" x="0" y="0"/>
    <use transform="rotate(147,228.283,228.632)" xlink:href="#aa1" x="0" y="0"/>
    <use transform="rotate(148,228.283,228.632)" xlink:href="#aa1" x="0" y="0"/>
    <use transform="rotate(149,228.283,228.632)" xlink:href="#aa1" x="0" y="0"/>
    <use transform="rotate(151,228.283,228.632)" xlink:href="#aa1" x="0" y="0"/>
    <use transform="rotate(152,228.283,228.632)" xlink:href="#aa1" x="0" y="0"/>
    <use transform="rotate(153,228.283,228.632)" xlink:href="#aa1" x="0" y="0"/>
    <use transform="rotate(154,228.283,228.632)" xlink:href="#aa1" x="0" y="0"/>
    <use transform="rotate(156,228.283,228.632)" xlink:href="#aa1" x="0" y="0"/>
    <use transform="rotate(157,228.283,228.632)" xlink:href="#aa1" x="0" y="0"/>
    <use transform="rotate(158,228.283,228.632)" xlink:href="#aa1" x="0" y="0"/>
    <use transform="rotate(159,228.283,228.632)" xlink:href="#aa1" x="0" y="0"/>
    <use transform="rotate(161,228.283,228.632)" xlink:href="#aa1" x="0" y="0"/>
    <use transform="rotate(162,228.283,228.632)" xlink:href="#aa1" x="0" y="0"/>
    <use transform="rotate(163,228.283,228.632)" xlink:href="#aa1" x="0" y="0"/>
    <use transform="rotate(164,228.283,228.632)" xlink:href="#aa1" x="0" y="0"/>
    <use transform="rotate(166,228.283,228.632)" xlink:href="#aa1" x="0" y="0"/>
    <use transform="rotate(167,228.283,228.632)" xlink:href="#aa1" x="0" y="0"/>
    <use transform="rotate(168,228.283,228.632)" xlink:href="#aa1" x="0" y="0"/>
    <use transform="rotate(169,228.283,228.632)" xlink:href="#aa1" x="0" y="0"/>
    <use transform="rotate(171,228.283,228.632)" xlink:href="#aa1" x="0" y="0"/>
    <use transform="rotate(172,228.283,228.632)" xlink:href="#aa1" x="0" y="0"/>
    <use transform="rotate(173,228.283,228.632)" xlink:href="#aa1" x="0" y="0"/>
    <use transform="rotate(174,228.283,228.632)" xlink:href="#aa1" x="0" y="0"/>
    <use transform="rotate(176,228.283,228.632)" xlink:href="#aa1" x="0" y="0"/>
    <use transform="rotate(177,228.283,228.632)" xlink:href="#aa1" x="0" y="0"/>
    <use transform="rotate(178,228.283,228.632)" xlink:href="#aa1" x="0" y="0"/>
    <use transform="rotate(179,228.283,228.632)" xlink:href="#aa1" x="0" y="0"/>
</svg>